<?xml version="1.0" encoding="utf-8"?>
<!-- Generator: Adobe Illustrator 22.1.0, SVG Export Plug-In . SVG Version: 6.00 Build 0)  -->
<svg version="1.1" id="Layer_1" xmlns="http://www.w3.org/2000/svg" xmlns:xlink="http://www.w3.org/1999/xlink" x="0px" y="0px"
	 viewBox="0 0 18.6 16" style="enable-background:new 0 0 18.6 16;" xml:space="preserve">
<style type="text/css">
	.st0{fill:#416693;}
</style>
<g>
	<path class="st0" d="M18.1,5.4c0,1-3.1,1.9-7,2.2C7.2,7.8,4,7.2,3.9,6.3c0-1,3.1-1.9,7-2.2c0.6,0,1.3,0,1.8,0
		c0.5-0.2,0.8-0.4,1-0.7C12.3,3.1,10.8,3,9.2,3C4.2,3,0,4.5,0,6.3s4.2,3.3,9.3,3.3s9.3-1.5,9.3-3.3c0-0.4-0.2-0.7-0.4-1
		C18.1,5.4,18.1,5.4,18.1,5.4z"/>
	<path class="st0" d="M18.1,8.6c0,1-3.1,1.9-7,2.2C8,11,5.3,10.6,4.3,10c-1.7-0.4-3-1-3.8-1.6C0.2,8.7,0,9.1,0,9.5
		c0,1.8,4.2,3.3,9.3,3.3s9.3-1.5,9.3-3.3c0-0.4-0.2-0.7-0.4-1C18.1,8.6,18.1,8.6,18.1,8.6z"/>
	<path class="st0" d="M18.1,11.8c0,1-3.1,1.9-7,2.2c-3.2,0.2-5.8-0.2-6.8-0.8c-1.7-0.4-3-1-3.8-1.6C0.2,11.9,0,12.3,0,12.7
		C0,14.5,4.2,16,9.3,16s9.3-1.5,9.3-3.3c0-0.4-0.2-0.7-0.4-1C18.1,11.8,18.1,11.8,18.1,11.8z"/>
	<path class="st0" d="M9.3,0C4.2,0,0,1.5,0,3.3c0,0.4,0.2,0.7,0.4,1c0-0.1,0-0.1,0-0.2c-0.1-1,3.1-1.9,7-2.2s7.2,0.4,7.2,1.3
		c0,1-3.1,1.9-7,2.2c-0.7,0-1.4,0-2,0C5.2,5.7,4.8,6,4.7,6.2c1.5,0.3,3,0.4,4.6,0.4c5.1,0,9.3-1.5,9.3-3.3S14.4,0,9.3,0z"/>
</g>
</svg>
